<svg xmlns="http://www.w3.org/2000/svg" width="1200" height="850" viewBox="0 0 1200 850">
  <defs>
    <radialGradient id="bg" cx="50%" cy="48%" r="55%" gradientUnits="userSpaceOnUse" x1="0" y1="0" x2="1200" y2="850">
      <stop offset="0%" stop-color="#141624"/>
      <stop offset="100%" stop-color="#08090f"/>
    </radialGradient>
    <linearGradient id="nameGold" x1="0%" y1="0%" x2="100%" y2="0%">
      <stop offset="0%" stop-color="#b8892a"/>
      <stop offset="45%" stop-color="#e8c96a"/>
      <stop offset="100%" stop-color="#b8892a"/>
    </linearGradient>
  </defs>

  <rect width="1200" height="850" fill="#08090f"/>
  <rect width="1200" height="850" fill="url(#bg)"/>

  <!-- Outer border -->
  <rect x="32" y="32" width="1136" height="786" fill="none" stroke="#c9a052" stroke-width="0.8" stroke-opacity="0.25" rx="2"/>

  <!-- Corner bracket TL -->
  <path d="M 60 140 L 60 60 L 140 60" fill="none" stroke="#c9a052" stroke-width="2"/>
  <!-- Corner bracket TR -->
  <path d="M 1140 140 L 1140 60 L 1060 60" fill="none" stroke="#c9a052" stroke-width="2"/>
  <!-- Corner bracket BL -->
  <path d="M 60 710 L 60 790 L 140 790" fill="none" stroke="#c9a052" stroke-width="2"/>
  <!-- Corner bracket BR -->
  <path d="M 1140 710 L 1140 790 L 1060 790" fill="none" stroke="#c9a052" stroke-width="2"/>

  <!-- Diamond tips on corners -->
  <polygon points="60,60 66,66 60,72 54,66" fill="#c9a052"/>
  <polygon points="1140,60 1146,66 1140,72 1134,66" fill="#c9a052"/>
  <polygon points="60,790 66,784 60,778 54,784" fill="#c9a052"/>
  <polygon points="1140,790 1146,784 1140,778 1134,784" fill="#c9a052"/>

  <!-- Club name -->
  <text x="600" y="136" text-anchor="middle" font-family="Georgia, serif" font-size="19" fill="#c9a052" letter-spacing="9">AHALIA OVERFLOW</text>

  <!-- Rule with center dot -->
  <line x1="210" y1="158" x2="542" y2="158" stroke="#c9a052" stroke-width="0.8" stroke-opacity="0.5"/>
  <circle cx="600" cy="158" r="2.5" fill="#c9a052" opacity="0.7"/>
  <line x1="658" y1="158" x2="990" y2="158" stroke="#c9a052" stroke-width="0.8" stroke-opacity="0.5"/>

  <!-- Certificate of Participation -->
  <text x="600" y="248" text-anchor="middle" font-family="Georgia, serif" font-size="50" fill="#f0ece4" font-weight="normal" letter-spacing="3">Certificate of Participation</text>

  <!-- "this is to certify that" -->
  <text x="600" y="316" text-anchor="middle" font-family="Arial, sans-serif" font-size="17" fill="#4b5563" letter-spacing="5">THIS IS TO CERTIFY THAT</text>

  <!-- Participant name -->
  <text x="600" y="422" text-anchor="middle" font-family="Georgia, serif" font-size="68" fill="url(#nameGold)" font-weight="bold">{{NAME}}</text>

  <!-- Underline -->
  <line x1="230" y1="446" x2="970" y2="446" stroke="#c9a052" stroke-width="1" stroke-opacity="0.4"/>

  <!-- participated in -->
  <text x="600" y="496" text-anchor="middle" font-family="Arial, sans-serif" font-size="17" fill="#4b5563" letter-spacing="5">HAS SUCCESSFULLY PARTICIPATED IN</text>

  <!-- Event name -->
  <text x="600" y="566" text-anchor="middle" font-family="Georgia, serif" font-size="40" fill="#e8e4da" font-weight="bold">{{EVENT}}</text>

  <!-- Date -->
  <text x="600" y="614" text-anchor="middle" font-family="Arial, sans-serif" font-size="18" fill="#4b5563" letter-spacing="3">{{DATE}}</text>

  <!-- Diamond separator -->
  <line x1="380" y1="648" x2="578" y2="648" stroke="#c9a052" stroke-width="0.7" stroke-opacity="0.4"/>
  <polygon points="600,638 610,648 600,658 590,648" fill="none" stroke="#c9a052" stroke-width="1.2" opacity="0.6"/>
  <line x1="622" y1="648" x2="820" y2="648" stroke="#c9a052" stroke-width="0.7" stroke-opacity="0.4"/>

  <!-- Signature left -->
  <line x1="140" y1="742" x2="420" y2="742" stroke="#c9a052" stroke-width="1" stroke-opacity="0.4"/>
  <text x="280" y="766" text-anchor="middle" font-family="Arial, sans-serif" font-size="14" fill="#4b5563" letter-spacing="3">EVENT ORGANIZER</text>

  <!-- Center seal -->
  <circle cx="600" cy="738" r="36" fill="none" stroke="#c9a052" stroke-width="1" stroke-opacity="0.35"/>
  <circle cx="600" cy="738" r="28" fill="none" stroke="#c9a052" stroke-width="0.6" stroke-opacity="0.22"/>
  <text x="600" y="734" text-anchor="middle" font-family="Georgia, serif" font-size="11" fill="#c9a052" letter-spacing="1" opacity="0.5">AHALIA</text>
  <text x="600" y="748" text-anchor="middle" font-family="Georgia, serif" font-size="11" fill="#c9a052" letter-spacing="1" opacity="0.5">OVERFLOW</text>

  <!-- Signature right -->
  <line x1="780" y1="742" x2="1060" y2="742" stroke="#c9a052" stroke-width="1" stroke-opacity="0.4"/>
  <text x="920" y="766" text-anchor="middle" font-family="Arial, sans-serif" font-size="14" fill="#4b5563" letter-spacing="3">CLUB LEAD</text>

  <!-- Bottom domain -->
  <text x="600" y="815" text-anchor="middle" font-family="Arial, sans-serif" font-size="13" fill="#1f2937" letter-spacing="4">AHALIAOVERFLOW.IN</text>
</svg> 
